<svg xmlns="http://www.w3.org/2000/svg" width="83" height="83" viewBox="0 0 83 83" fill="none">
    <path d="M11.6919 50.1964C6.03863 32.9173 36.5269 12.1287 48.6324 25.0083C56.6378 33.5238 56.0449 53.9339 44.4389 61.8476C32.8329 69.7612 15.429 61.6222 11.6919 50.1964Z"
          fill="url(#paint0_linear_516_60)"/>
    <path d="M11.6919 50.1964C6.03863 32.9173 36.5269 12.1287 48.6324 25.0083C56.6378 33.5238 56.0449 53.9339 44.4389 61.8476C32.8329 69.7612 15.429 61.6222 11.6919 50.1964Z"
          fill="white" fill-opacity="0.5"/>
    <path d="M45.329 67.8812C32.5912 68.8642 22.9999 60.6472 22.0169 47.9094C21.034 35.1716 29.2509 25.5803 41.9888 24.5973C47.0592 24.206 51.7422 25.2442 55.5933 27.5906C61.2734 31.071 64.7234 37.0872 65.3008 44.5691C66.2838 57.307 58.0668 66.8982 45.329 67.8812ZM40.6863 27.8702C30.5028 29.3092 24.2927 37.0972 25.1087 47.6708C25.9652 58.77 33.9912 65.646 45.0904 64.7895C56.1896 63.933 63.0656 55.907 62.2091 44.8077C61.7105 38.3461 58.791 33.1598 53.9624 30.2357C51.0581 28.4693 47.5689 27.5878 43.778 27.6316L45.46 49.4281L31.3309 50.5185L31.0756 47.2103L42.113 46.3586L40.6863 27.8702ZM66.1064 32.4397L64.3245 29.9025L68.4263 27.0357L70.2083 29.5729L66.1064 32.4397ZM59.4478 25.1472L56.8598 23.4497L61.8738 15.8784L64.4618 17.5759L59.4478 25.1472ZM49.1512 20.6857L46.0522 20.4272C46.102 19.8635 45.9069 19.3499 45.4359 18.8886C43.7492 17.1838 39.0498 17.5465 37.6448 19.4899C37.281 20.0155 37.167 20.5531 37.3003 21.0715L34.2777 21.8024C33.9182 20.3684 34.2389 18.8819 35.14 17.6616C36.3763 15.9489 38.652 14.8092 41.1872 14.6135C43.7533 14.4155 46.146 15.195 47.6305 16.6977C48.7414 17.7938 49.2864 19.2135 49.1512 20.6857Z"
          fill="#21201F"/>
    <defs>
        <linearGradient id="paint0_linear_516_60" x1="52.7557" y1="31.2615" x2="13.6578" y2="54.2842"
                        gradientUnits="userSpaceOnUse">
            <stop stop-color="#FF5C4D"/>
            <stop offset="0.25" stop-color="#EB469F"/>
            <stop offset="0.72" stop-color="#8341EF"/>
            <stop offset="1" stop-color="#3F68F9"/>
        </linearGradient>
    </defs>
</svg>