<svg xmlns="http://www.w3.org/2000/svg" width="83" height="83" viewBox="0 0 83 83" fill="none">
    <path
            d="M8.06453 63.8352C-5.85806 48.5349 12.7903 15.6675 24.8591 12.929C36.9609 10.1606 64.2127 40.2415 60.3544 51.937C56.4925 63.6946 22.0164 79.1678 8.06453 63.8352Z"
            fill="url(#paint0_linear_516_47)"/>
    <path
            d="M8.06453 63.8352C-5.85806 48.5349 12.7903 15.6675 24.8591 12.929C36.9609 10.1606 64.2127 40.2415 60.3544 51.937C56.4925 63.6946 22.0164 79.1678 8.06453 63.8352Z"
            fill="white" fill-opacity="0.5"/>
    <path
            d="M30.4003 60.5716C28.7103 60.4554 27.1602 59.9992 25.7501 59.2031C24.3753 58.3761 23.209 57.1806 22.2512 55.6165C21.3288 54.0216 20.6479 52.0604 20.2087 49.733C19.7717 47.3724 19.6626 44.6016 19.8814 41.4204C20.1001 38.2393 20.5863 35.5261 21.34 33.2806C22.096 31.0021 23.0388 29.1526 24.1686 27.732C25.3315 26.3138 26.6493 25.3057 28.1221 24.7079C29.6279 24.1122 31.2259 23.8725 32.9158 23.9887C34.6058 24.105 36.1393 24.56 37.5163 25.3538C38.8933 26.1477 40.0442 27.3255 40.9689 28.8873C41.8959 30.4159 42.5624 32.3428 42.9685 34.668C43.4078 36.9955 43.518 39.7497 43.2993 42.9309C43.0805 46.112 42.5932 48.8418 41.8372 51.1204C41.1167 53.3681 40.1904 55.2187 39.0583 56.6724C37.9263 58.126 36.6227 59.1684 35.1477 59.7994C33.6727 60.4304 32.0902 60.6878 30.4003 60.5716ZM30.6206 56.6415C31.7472 56.719 32.7584 56.5388 33.6541 56.101C34.5499 55.6632 35.3347 54.9015 36.0086 53.8158C36.6826 52.7302 37.2313 51.2864 37.6549 49.4844C38.1138 47.6515 38.4345 45.4096 38.6167 42.7587C38.799 40.1078 38.8037 37.8608 38.6308 36.0178C38.4602 34.1416 38.1154 32.6197 37.5964 31.452C37.0774 30.2844 36.4042 29.4224 35.5768 28.8661C34.7495 28.3098 33.7725 27.9929 32.6458 27.9154C31.5192 27.838 30.4914 28.017 29.5625 28.4525C28.6668 28.8903 27.8654 29.6509 27.1583 30.7343C26.4844 31.8199 25.918 33.2791 25.459 35.112C25.0354 36.914 24.7325 39.1405 24.5502 41.7914C24.3679 44.4424 24.3621 46.7059 24.5327 48.5821C24.7388 50.4274 25.1013 51.9339 25.6203 53.1015C26.1393 54.2692 26.8125 55.1311 27.6398 55.6874C28.5004 56.246 29.4939 56.564 30.6206 56.6415Z"
            fill="#21201F"/>
    <path
            d="M54.3102 41.99L55.4107 25.985L63.8109 26.5627C67.5222 26.8179 70.3493 27.8279 72.2921 29.5929C74.268 31.3602 75.1432 33.884 74.9177 37.1646C74.8014 38.8545 74.403 40.292 73.7222 41.4771C73.0746 42.6644 72.1766 43.6181 71.0285 44.3382C69.9157 45.0274 68.6 45.5196 67.0815 45.8147C65.5653 46.0767 63.896 46.145 62.0734 46.0197L58.7432 45.7907L58.4527 50.0156L68.841 50.7299L68.6018 54.2093L58.2134 53.4949L57.6324 61.9448L52.9601 61.6235L53.5412 53.1737L49.4654 52.8934L49.7046 49.414L53.7804 49.6943L54.0709 45.4694L49.9951 45.1891L50.2344 41.7098L54.3102 41.99ZM59.8062 30.3324L58.9825 42.3113L62.3127 42.5403C64.7317 42.7067 66.6049 42.3361 67.9325 41.4285C69.2954 40.4902 70.0498 38.9606 70.1957 36.8399C70.3301 34.8848 69.8659 33.4046 68.8031 32.3993C67.7756 31.3632 66.0193 30.7596 63.534 30.5888L59.8062 30.3324Z"
            fill="#21201F"/>
    <defs>
        <linearGradient id="paint0_linear_516_47" x1="8.07898" y1="63.8514" x2="48.5806" y2="26.997"
                        gradientUnits="userSpaceOnUse">
            <stop stop-color="#FF5C4D"/>
            <stop offset="0.25" stop-color="#EB469F"/>
            <stop offset="0.72" stop-color="#8341EF"/>
            <stop offset="1" stop-color="#3F68F9"/>
        </linearGradient>
    </defs>
</svg>