<svg xmlns="http://www.w3.org/2000/svg" width="83" height="83" viewBox="0 0 94 83" fill="none">
    <path d="M24.4163 32.8198C24.4163 16.3927 52.325 7.05517 60.6942 11.8968C69.0979 16.7385 69.0288 48.9702 60.6942 53.7773C52.325 58.6189 24.4163 49.2814 24.4163 32.8198Z"
          fill="url(#paint0_linear_516_53)"/>
    <path d="M24.4163 32.8198C24.4163 16.3927 52.325 7.05517 60.6942 11.8968C69.0979 16.7385 69.0288 48.9702 60.6942 53.7773C52.325 58.6189 24.4163 49.2814 24.4163 32.8198Z"
          fill="white" fill-opacity="0.5"/>
    <path d="M63.8412 67.506C59.5528 67.506 55.1953 64.5318 55.1953 58.8601C55.1953 55.3326 57.0974 52.4276 60.0024 51.0443L51.5987 19.4006C46.9645 19.3314 43.0566 19.4351 39.4253 19.7118L39.1487 16.2535C43.2295 15.9422 47.587 15.8385 52.9474 15.9422L54.2616 15.9768L63.3224 50.2143C68.3716 49.9722 72.4524 53.7418 72.4524 58.8601C72.487 63.8056 68.752 67.506 63.8412 67.506ZM63.8412 53.6726C60.8324 53.6726 58.6537 55.8514 58.6537 58.8601C58.6537 62.6989 61.4549 64.0476 63.8412 64.0476C66.8499 64.0476 69.0287 61.8689 69.0287 58.8601C69.0287 55.8514 66.8499 53.6726 63.8412 53.6726ZM19.1595 67.506C14.8712 67.506 10.5137 64.5318 10.5137 58.8601C10.5137 53.9147 14.2141 50.2143 19.1595 50.2143C23.4824 50.2143 26.8716 53.0847 27.6324 57.131H37.5924C41.5695 57.131 43.437 56.3701 46.3074 53.6726C48.7628 51.321 51.1145 48.831 53.2933 46.2372L55.9562 48.4506C53.7083 51.1481 51.2528 53.7418 48.6937 56.1626C45.1662 59.5172 42.4687 60.5893 37.5924 60.5893H27.667C26.9062 64.6356 23.517 67.506 19.1595 67.506ZM19.1595 53.6726C16.1508 53.6726 13.972 55.8514 13.972 58.8601C13.972 62.6989 16.7733 64.0476 19.1595 64.0476C22.1683 64.0476 24.347 61.8689 24.347 58.8601C24.347 55.8514 22.1683 53.6726 19.1595 53.6726ZM62.9074 24.0347H60.6595C59.4145 24.0347 58.377 23.0318 58.377 21.7522C58.377 20.5072 59.3799 19.5043 60.6595 19.5043H62.9074V24.0347Z"
          fill="#21201F"/>
    <path d="M78.1241 16.4158L67.6919 5.53254L69.4179 3.74031L79.8755 14.6236L78.1241 16.4158ZM69.4179 16.4158L67.6919 14.6236L78.1749 3.74031L79.8755 5.53254L69.4179 16.4158Z"
          fill="#21201F"/>
    <path d="M84.8656 10.5975V7.79231H87.2008C87.7761 7.79231 88.2753 7.69707 88.6984 7.50659C89.1214 7.2988 89.4514 7.00442 89.6883 6.62346C89.9252 6.22519 90.0436 5.74899 90.0436 5.19487C90.0436 4.67538 89.9252 4.23382 89.6883 3.87018C89.4683 3.50654 89.1383 3.22948 88.6984 3.039C88.2584 2.8312 87.7169 2.72731 87.0739 2.72731C86.2786 2.72731 85.5171 2.87449 84.7895 3.16887C84.0787 3.44593 83.3173 3.90481 82.505 4.54551V1.53249C82.9788 1.18616 83.4696 0.900444 83.9772 0.675333C84.4849 0.450221 85.0348 0.285717 85.6271 0.18182C86.2193 0.0606066 86.8539 0 87.5308 0C88.7153 0 89.7391 0.207795 90.6021 0.623385C91.4651 1.03897 92.1335 1.61907 92.6073 2.36367C93.0811 3.10827 93.318 3.96542 93.318 4.93513C93.318 5.55851 93.208 6.12129 92.988 6.62346C92.768 7.12563 92.4804 7.54988 92.125 7.89621C91.7697 8.24253 91.3635 8.51959 90.9067 8.72739C90.4498 8.93518 89.9844 9.06505 89.5106 9.117V9.0131C90.086 9.06505 90.6359 9.20358 91.1605 9.42869C91.702 9.63649 92.1842 9.93086 92.6073 10.3118C93.0303 10.6928 93.3603 11.1517 93.5972 11.6885C93.851 12.2253 93.9779 12.84 93.9779 13.5326C93.9779 14.6582 93.6987 15.6452 93.1403 16.4937C92.5819 17.3249 91.8035 17.9743 90.8051 18.4418C89.8067 18.892 88.6391 19.1171 87.3023 19.1171C86.6255 19.1171 85.974 19.0565 85.3479 18.9353C84.7218 18.8314 84.138 18.6669 83.5965 18.4418C83.055 18.1994 82.5558 17.9137 82.0989 17.5846V14.5716C82.8942 15.195 83.6895 15.6539 84.4849 15.9483C85.2802 16.2426 86.1347 16.3898 87.0485 16.3898C87.8269 16.3898 88.4784 16.2686 89.003 16.0262C89.5275 15.7838 89.9167 15.4461 90.1706 15.0132C90.4413 14.563 90.5767 14.0262 90.5767 13.4028C90.5767 12.7794 90.4498 12.2599 90.1959 11.8443C89.9421 11.4287 89.5614 11.117 89.0537 10.9092C88.5461 10.7014 87.8946 10.5975 87.0993 10.5975H84.8656Z"
          fill="#21201F"/>
    <defs>
        <linearGradient id="paint0_linear_516_53" x1="24.4163" y1="32.8369" x2="66.9711" y2="32.8369"
                        gradientUnits="userSpaceOnUse">
            <stop stop-color="#FF5C4D"/>
            <stop offset="0.25" stop-color="#EB469F"/>
            <stop offset="0.72" stop-color="#8341EF"/>
            <stop offset="1" stop-color="#3F68F9"/>
        </linearGradient>
    </defs>
</svg>