<svg xmlns="http://www.w3.org/2000/svg" width="83" height="83" viewBox="0 0 83 83" fill="none">
    <path d="M0.859306 53.5427C-6.16149 30.1404 31.7016 1.98502 46.7354 19.4287C56.6772 30.9618 55.941 58.6047 41.5275 69.3227C27.1141 80.0407 5.50028 69.0175 0.859306 53.5427Z"
          fill="url(#paint0_linear_516_65)"/>
    <path d="M0.859306 53.5427C-6.16149 30.1404 31.7016 1.98502 46.7354 19.4287C56.6772 30.9618 55.941 58.6047 41.5275 69.3227C27.1141 80.0407 5.50028 69.0175 0.859306 53.5427Z"
          fill="white" fill-opacity="0.5"/>
    <path d="M22.8016 40.8173C22.4292 36.5606 25.578 32.808 29.8347 32.4356L60.1787 29.7809C64.4353 29.4084 68.188 32.5573 68.5604 36.8139L69.4199 46.6383C69.7923 50.895 66.6435 54.6476 62.3868 55.02L32.0428 57.6747C27.7861 58.0471 24.0335 54.8983 23.6611 50.6417L22.8016 40.8173Z"
          stroke="#21201F" stroke-width="3.50169"/>
    <defs>
        <linearGradient id="paint0_linear_516_65" x1="51.8561" y1="27.8978" x2="1.22539" y2="55.2356"
                        gradientUnits="userSpaceOnUse">
            <stop stop-color="#FF5C4D"/>
            <stop offset="0.25" stop-color="#EB469F"/>
            <stop offset="0.72" stop-color="#8341EF"/>
            <stop offset="1" stop-color="#3F68F9"/>
        </linearGradient>
    </defs>
</svg>